<svg width="880" height="1031" viewBox="0 0 880 1031" fill="none" xmlns="http://www.w3.org/2000/svg">
<g clip-path="url(#clip0_53_796)">
<path d="M877.351 376.197C879.656 347.98 880.614 319.404 879.611 290.633C878.818 262.655 876.154 235.022 872.084 207.957L728.077 184.096L679.277 47.8154L775.231 -62.224C746.125 -110.665 711.496 -155.243 672.363 -195.346L541.795 -129.78L422.091 -211.199L435.036 -356.85C385.398 -377.792 332.886 -393.54 278.399 -402.985L210.564 -273.381L65.7939 -269.983L-8.56635 -396.025C-19.8199 -393.465 -30.9837 -390.621 -42.0277 -387.552C-63.203 -382.941 -86.0992 -374.738 -105.688 -366.67C-126.714 -358.676 -147.275 -349.754 -167.298 -339.92L-145.973 -195.271L-261.023 -107.237L-395.093 -165.138C-431.891 -122.999 -463.991 -76.5796 -490.359 -26.5072L-388.329 77.8289L-429.422 216.594L-571.947 248.733C-574.506 277.445 -575.599 306.799 -574.686 336.618C-573.683 363.832 -571.229 390.508 -567.547 416.839L-423.481 441.119L-375.115 577.564L-471.713 687.334C-442.516 735.805 -408.037 780.877 -368.889 821.085L-238.067 755.939L-118.603 837.701L-132.146 983.382C-80.9213 1005.07 -26.8833 1021.39 29.2946 1031L96.7411 901.081L241.496 897.084L316.096 1022.93C371.705 1010 424.815 990.837 474.678 966.182L452.934 821.609L567.594 733.065L701.799 790.593C738.612 748.169 770.622 701.66 796.781 651.647L694.152 547.715L734.737 408.531L877.321 376.197H877.351Z" fill="#98D6F1"/>
<path d="M668.143 358.249C669.774 338.175 670.462 317.847 669.759 297.384C669.205 277.49 667.29 257.82 664.402 238.57L561.953 221.594L527.234 124.653L595.489 46.3787C574.792 11.9193 550.145 -19.7857 522.311 -48.3172L429.439 -1.67281L344.289 -59.5891L353.493 -163.207C318.176 -178.101 280.823 -189.298 242.064 -196.034L193.803 -103.838L90.815 -101.428L37.9143 -191.079C29.9082 -189.253 21.9619 -187.232 14.1053 -185.062C-0.964264 -181.784 -17.246 -175.946 -31.1783 -170.212C-46.1431 -164.524 -60.7637 -158.177 -75.0102 -151.171L-59.8359 -48.2723L-141.678 14.3593L-237.049 -26.8212C-263.223 3.14731 -286.059 36.1846 -304.825 71.7965L-232.246 146.014L-261.487 244.737L-362.859 267.58C-364.684 287.998 -365.462 308.881 -364.804 330.092C-364.086 349.447 -362.35 368.428 -359.731 387.155L-257.252 404.43L-222.848 501.491L-291.566 579.585C-270.795 614.06 -246.268 646.124 -218.418 674.73L-125.352 628.385L-40.3666 686.556L-50.004 790.189C-13.5646 805.607 24.88 817.223 64.836 824.064L112.813 731.644L215.786 728.8L268.852 818.316C308.419 809.11 346.19 795.488 381.671 777.944L366.198 675.105L447.771 612.129L543.247 653.055C569.435 622.877 592.211 589.795 610.813 554.212L537.814 480.279L566.696 381.272L668.128 358.264L668.143 358.249Z" fill="#AADCF3"/>
</g>
<defs>
<clipPath id="clip0_53_796">
<rect width="1455" height="1434" fill="white" transform="translate(-575 -403)"/>
</clipPath>
</defs>
</svg>
