<svg width="150" height="150" viewBox="0 0 150 150" fill="none" xmlns="http://www.w3.org/2000/svg">
<g clip-path="url(#clip0_53_1089)">
<path d="M75 147.222C114.887 147.222 147.222 114.887 147.222 75.0001C147.222 35.1128 114.887 2.77783 75 2.77783C35.1128 2.77783 2.77777 35.1128 2.77777 75.0001C2.77777 114.887 35.1128 147.222 75 147.222Z" fill="#97D4ED" stroke="#22424F" stroke-width="4.77778" stroke-miterlimit="10"/>
<path d="M72.6667 124.333L45.7223 113.972C40.4167 111.944 37.75 105.944 39.8056 100.639L63.9167 37.9999C65.9445 32.6943 71.9445 30.0276 77.25 32.0832L104.194 42.4443C109.5 44.4721 112.167 50.4721 110.111 55.7776L86 118.417C83.9723 123.722 77.9723 126.389 72.6667 124.333ZM76.3056 34.5276C72.3612 32.9999 67.9167 34.9721 66.3889 38.9165L42.2778 101.555C40.75 105.5 42.7223 109.944 46.6667 111.472L73.6112 121.833C77.5556 123.361 82 121.389 83.5278 117.444L107.639 54.8054C109.167 50.861 107.194 46.4165 103.25 44.8887L76.3056 34.5276Z" fill="#494E4E"/>
<path d="M90.735 29.3921L95.9717 31.4075C98.4345 32.3554 99.6364 35.1098 98.6986 37.5467L97.8904 39.6465C97.4414 40.8131 96.149 41.3872 94.9824 40.9382L85.0535 37.1169C83.8869 36.6679 83.3128 35.3755 83.7618 34.2089L84.5699 32.109C85.5178 29.6463 88.2722 28.4443 90.7091 29.3821L90.735 29.3921Z" fill="#494E4E"/>
<path d="M101.344 47.2585L76.1201 37.5506C73.1134 36.3934 69.738 37.8927 68.5808 40.8994L45.204 101.64C44.0468 104.646 45.5462 108.022 48.5528 109.179L73.777 118.887C76.7836 120.044 80.1591 118.545 81.3163 115.538L104.693 54.7977C105.85 51.7911 104.351 48.4156 101.344 47.2585Z" fill="#429579"/>
<path d="M85.6944 56.1943L64.9167 77.1943L76.1944 78.4721L64.0555 95.9443L86.5555 74.1943L74.9722 73.0554L85.6944 56.1943Z" fill="white"/>
</g>
<defs>
<clipPath id="clip0_53_1089">
<rect width="150" height="150" fill="white"/>
</clipPath>
</defs>
</svg>
